<svg width="77" height="41" viewBox="0 0 77 41" fill="none" xmlns="http://www.w3.org/2000/svg">
    <path fill-rule="evenodd" clip-rule="evenodd"
        d="M12.3218 12.0498V28.3875H14.6894C17.7027 28.3875 20.0166 27.7295 21.6307 26.4132C23.2449 25.0969 24.0519 22.9419 24.0519 19.9481C24.0519 17.4598 23.2449 15.522 21.6307 14.1328C20.0166 12.7444 17.8642 12.0498 15.1736 12.0498H12.3218ZM0 39.5144V1.08575H14.2054C17.2185 1.08575 20.0975 1.38409 22.8416 1.98121C25.5859 2.57834 28.007 3.60947 30.1057 5.07506C32.2043 6.54065 33.8805 8.48605 35.1366 10.91C36.392 13.3345 37.02 16.3921 37.02 20.0831C37.02 23.4482 36.419 26.3615 35.2174 28.8217C34.0152 31.2828 32.4103 33.2997 30.4016 34.8737C28.3921 36.4478 26.0783 37.6148 23.4603 38.3746C20.8413 39.1346 18.115 39.5144 15.2816 39.5144H0Z"
        fill="white" />
    <path fill-rule="evenodd" clip-rule="evenodd"
        d="M40.679 20.3C40.679 17.2247 41.2171 14.4379 42.2933 11.9411C43.3695 9.44421 44.84 7.30978 46.7056 5.53634C48.5703 3.76377 50.7681 2.39756 53.2971 1.43836C55.826 0.480031 58.5247 0 61.3952 0C64.3361 0 67.1164 0.480031 69.7354 1.43836C72.3534 2.39756 74.5419 3.69097 76.3 5.31923L68.4442 14.8721C67.7261 13.9315 66.8296 13.2166 65.7536 12.7282C64.6775 12.2397 63.4751 11.9954 62.1484 11.9954C61.0724 11.9954 60.0676 12.1853 59.1353 12.5653C58.202 12.9453 57.3866 13.4975 56.687 14.2208C55.9873 14.9451 55.4401 15.822 55.0458 16.8534C54.6507 17.8845 54.4539 19.0338 54.4539 20.3C54.4539 21.567 54.6599 22.6976 55.0728 23.6924C55.4846 24.6881 56.0412 25.5471 56.7407 26.2706C57.4404 26.9947 58.2557 27.546 59.1891 27.9261C60.1213 28.3061 61.1078 28.496 62.1484 28.496C63.6188 28.496 64.8835 28.189 65.9419 27.5733C66.9994 26.9584 67.8336 26.2349 68.4442 25.4021L76.3 34.9008C74.5781 36.6377 72.4611 38.0218 69.9506 39.053C67.4393 40.0843 64.5875 40.6 61.3952 40.6C58.5247 40.6 55.826 40.1115 53.2971 39.1344C50.7681 38.1575 48.5703 36.7734 46.7056 34.9822C44.84 33.1911 43.3695 31.0564 42.2933 28.5774C41.2171 26.0993 40.679 23.3396 40.679 20.3Z"
        fill="white" />
</svg>
