<svg width="140" height="140" viewBox="0 0 140 140" fill="none" xmlns="http://www.w3.org/2000/svg">
    <g clip-path="url(#clip0_1341_893)">
        <rect x="-30" y="-30" width="200" height="200" rx="30" fill="#6833FF" />
        <path fill-rule="evenodd" clip-rule="evenodd"
            d="M45.3218 62.0498V78.3875H47.6894C50.7027 78.3875 53.0166 77.7295 54.6307 76.4132C56.2449 75.0969 57.0519 72.9419 57.0519 69.9481C57.0519 67.4598 56.2449 65.522 54.6307 64.1328C53.0166 62.7444 50.8642 62.0498 48.1736 62.0498H45.3218ZM33 89.5144V51.0857H47.2054C50.2185 51.0857 53.0975 51.3841 55.8416 51.9812C58.5859 52.5783 61.007 53.6095 63.1057 55.0751C65.2043 56.5406 66.8805 58.486 68.1366 60.91C69.392 63.3345 70.02 66.3921 70.02 70.0831C70.02 73.4482 69.419 76.3615 68.2174 78.8217C67.0152 81.2828 65.4103 83.2997 63.4016 84.8737C61.3921 86.4478 59.0783 87.6148 56.4603 88.3746C53.8413 89.1346 51.115 89.5144 48.2816 89.5144H33Z"
            fill="white" />
        <path fill-rule="evenodd" clip-rule="evenodd"
            d="M73.679 70.3C73.679 67.2247 74.2171 64.4379 75.2933 61.9411C76.3695 59.4442 77.84 57.3098 79.7056 55.5363C81.5703 53.7638 83.7681 52.3976 86.2971 51.4384C88.826 50.48 91.5247 50 94.3952 50C97.3361 50 100.116 50.48 102.735 51.4384C105.353 52.3976 107.542 53.691 109.3 55.3192L101.444 64.8721C100.726 63.9315 99.8296 63.2166 98.7536 62.7282C97.6775 62.2397 96.4751 61.9954 95.1484 61.9954C94.0724 61.9954 93.0676 62.1853 92.1353 62.5653C91.202 62.9453 90.3866 63.4975 89.687 64.2208C88.9873 64.9451 88.4401 65.822 88.0458 66.8534C87.6507 67.8845 87.4539 69.0338 87.4539 70.3C87.4539 71.567 87.6599 72.6976 88.0728 73.6924C88.4846 74.6881 89.0412 75.5471 89.7407 76.2706C90.4404 76.9947 91.2557 77.546 92.1891 77.9261C93.1213 78.3061 94.1078 78.496 95.1484 78.496C96.6188 78.496 97.8835 78.189 98.9419 77.5733C99.9994 76.9584 100.834 76.2349 101.444 75.4021L109.3 84.9008C107.578 86.6377 105.461 88.0218 102.951 89.053C100.439 90.0843 97.5875 90.6 94.3952 90.6C91.5247 90.6 88.826 90.1115 86.2971 89.1344C83.7681 88.1575 81.5703 86.7734 79.7056 84.9822C77.84 83.1911 76.3695 81.0564 75.2933 78.5774C74.2171 76.0993 73.679 73.3396 73.679 70.3Z"
            fill="white" />
    </g>
    <defs>
        <clipPath id="clip0_1341_893">
            <rect width="140" height="140" rx="40" fill="white" />
        </clipPath>
    </defs>
</svg>
